<svg style="background-color: #000; font-family: Consolas, Menlo, &#39;Bitstream Vera Sans Mono&#39;, monospace, &#39;Powerline Symbols&#39;; font-size: 16; stroke: none;" width="880" height="870" viewBox="-5 -5 880 870"><text style="fill: #fff;" x="0" y="16">_</text><text style="fill: #fff;" x="10" y="16">t</text><text style="fill: #fff;" x="20" y="16">a</text><text style="fill: #fff;" x="30" y="16">g</text><text style="fill: #fff;" x="40" y="16">s</text><text style="fill: #fff;" x="50" y="16">:</text><text style="fill: #fff;" x="60" y="16">c</text><text style="fill: #fff;" x="70" y="16">o</text><text style="fill: #fff;" x="80" y="16">m</text><text style="fill: #fff;" x="90" y="16">p</text><text style="fill: #fff;" x="100" y="16">t</text><text style="fill: #fff;" x="110" y="16">a</text><text style="fill: #fff;" x="120" y="16">g</text><text style="fill: #fff;" x="130" y="16">s</text><text style="fill: #fff;" x="140" y="16">:</text><text style="fill: #fff;" x="150" y="16">3</text><text style="fill: #fff;" x="160" y="16">6</text><text style="fill: #fff;" x="170" y="16">:</text><text style="fill: #fff;" x="190" y="16">c</text><text style="fill: #fff;" x="200" y="16">a</text><text style="fill: #fff;" x="210" y="16">n</text><text style="fill: #fff;" x="230" y="16">o</text><text style="fill: #fff;" x="240" y="16">n</text><text style="fill: #fff;" x="250" y="16">l</text><text style="fill: #fff;" x="260" y="16">y</text><text style="fill: #fff;" x="280" y="16">b</text><text style="fill: #fff;" x="290" y="16">e</text><text style="fill: #fff;" x="310" y="16">c</text><text style="fill: #fff;" x="320" y="16">a</text><text style="fill: #fff;" x="330" y="16">l</text><text style="fill: #fff;" x="340" y="16">l</text><text style="fill: #fff;" x="350" y="16">e</text><text style="fill: #fff;" x="360" y="16">d</text><text style="fill: #fff;" x="380" y="16">f</text><text style="fill: #fff;" x="390" y="16">r</text><text style="fill: #fff;" x="400" y="16">o</text><text style="fill: #fff;" x="410" y="16">m</text><text style="fill: #fff;" x="430" y="16">c</text><text style="fill: #fff;" x="440" y="16">o</text><text style="fill: #fff;" x="450" y="16">m</text><text style="fill: #fff;" x="460" y="16">p</text><text style="fill: #fff;" x="470" y="16">l</text><text style="fill: #fff;" x="480" y="16">e</text><text style="fill: #fff;" x="490" y="16">t</text><text style="fill: #fff;" x="500" y="16">i</text><text style="fill: #fff;" x="510" y="16">o</text><text style="fill: #fff;" x="520" y="16">n</text><text style="fill: #fff;" x="540" y="16">f</text><text style="fill: #fff;" x="550" y="16">u</text><text style="fill: #fff;" x="560" y="16">n</text><text style="fill: #fff;" x="570" y="16">c</text><text style="fill: #fff;" x="580" y="16">t</text><text style="fill: #fff;" x="590" y="16">i</text><text style="fill: #fff;" x="600" y="16">o</text><text style="fill: #fff;" x="610" y="16">n</text><text style="fill: #fff;" x="0" y="36">_</text><text style="fill: #fff;" x="10" y="36">t</text><text style="fill: #fff;" x="20" y="36">a</text><text style="fill: #fff;" x="30" y="36">g</text><text style="fill: #fff;" x="40" y="36">s</text><text style="fill: #fff;" x="50" y="36">:</text><text style="fill: #fff;" x="60" y="36">c</text><text style="fill: #fff;" x="70" y="36">o</text><text style="fill: #fff;" x="80" y="36">m</text><text style="fill: #fff;" x="90" y="36">p</text><text style="fill: #fff;" x="100" y="36">t</text><text style="fill: #fff;" x="110" y="36">r</text><text style="fill: #fff;" x="120" y="36">y</text><text style="fill: #fff;" x="130" y="36">:</text><text style="fill: #fff;" x="140" y="36">5</text><text style="fill: #fff;" x="150" y="36">5</text><text style="fill: #fff;" x="160" y="36">:</text><text style="fill: #fff;" x="180" y="36">c</text><text style="fill: #fff;" x="190" y="36">a</text><text style="fill: #fff;" x="200" y="36">n</text><text style="fill: #fff;" x="220" y="36">o</text><text style="fill: #fff;" x="230" y="36">n</text><text style="fill: #fff;" x="240" y="36">l</text><text style="fill: #fff;" x="250" y="36">y</text><text style="fill: #fff;" x="270" y="36">b</text><text style="fill: #fff;" x="280" y="36">e</text><text style="fill: #fff;" x="300" y="36">c</text><text style="fill: #fff;" x="310" y="36">a</text><text style="fill: #fff;" x="320" y="36">l</text><text style="fill: #fff;" x="330" y="36">l</text><text style="fill: #fff;" x="340" y="36">e</text><text style="fill: #fff;" x="350" y="36">d</text><text style="fill: #fff;" x="370" y="36">f</text><text style="fill: #fff;" x="380" y="36">r</text><text style="fill: #fff;" x="390" y="36">o</text><text style="fill: #fff;" x="400" y="36">m</text><text style="fill: #fff;" x="420" y="36">c</text><text style="fill: #fff;" x="430" y="36">o</text><text style="fill: #fff;" x="440" y="36">m</text><text style="fill: #fff;" x="450" y="36">p</text><text style="fill: #fff;" x="460" y="36">l</text><text style="fill: #fff;" x="470" y="36">e</text><text style="fill: #fff;" x="480" y="36">t</text><text style="fill: #fff;" x="490" y="36">i</text><text style="fill: #fff;" x="500" y="36">o</text><text style="fill: #fff;" x="510" y="36">n</text><text style="fill: #fff;" x="530" y="36">f</text><text style="fill: #fff;" x="540" y="36">u</text><text style="fill: #fff;" x="550" y="36">n</text><text style="fill: #fff;" x="560" y="36">c</text><text style="fill: #fff;" x="570" y="36">t</text><text style="fill: #fff;" x="580" y="36">i</text><text style="fill: #fff;" x="590" y="36">o</text><text style="fill: #fff;" x="600" y="36">n</text><text style="fill: #fff;" x="0" y="56">_</text><text style="fill: #fff;" x="10" y="56">t</text><text style="fill: #fff;" x="20" y="56">a</text><text style="fill: #fff;" x="30" y="56">g</text><text style="fill: #fff;" x="40" y="56">s</text><text style="fill: #fff;" x="50" y="56">:</text><text style="fill: #fff;" x="60" y="56">c</text><text style="fill: #fff;" x="70" y="56">o</text><text style="fill: #fff;" x="80" y="56">m</text><text style="fill: #fff;" x="90" y="56">p</text><text style="fill: #fff;" x="100" y="56">t</text><text style="fill: #fff;" x="110" y="56">a</text><text style="fill: #fff;" x="120" y="56">g</text><text style="fill: #fff;" x="130" y="56">s</text><text style="fill: #fff;" x="140" y="56">:</text><text style="fill: #fff;" x="150" y="56">6</text><text style="fill: #fff;" x="160" y="56">0</text><text style="fill: #fff;" x="170" y="56">:</text><text style="fill: #fff;" x="190" y="56">c</text><text style="fill: #fff;" x="200" y="56">a</text><text style="fill: #fff;" x="210" y="56">n</text><text style="fill: #fff;" x="230" y="56">o</text><text style="fill: #fff;" x="240" y="56">n</text><text style="fill: #fff;" x="250" y="56">l</text><text style="fill: #fff;" x="260" y="56">y</text><text style="fill: #fff;" x="280" y="56">b</text><text style="fill: #fff;" x="290" y="56">e</text><text style="fill: #fff;" x="310" y="56">c</text><text style="fill: #fff;" x="320" y="56">a</text><text style="fill: #fff;" x="330" y="56">l</text><text style="fill: #fff;" x="340" y="56">l</text><text style="fill: #fff;" x="350" y="56">e</text><text style="fill: #fff;" x="360" y="56">d</text><text style="fill: #fff;" x="380" y="56">f</text><text style="fill: #fff;" x="390" y="56">r</text><text style="fill: #fff;" x="400" y="56">o</text><text style="fill: #fff;" x="410" y="56">m</text><text style="fill: #fff;" x="430" y="56">c</text><text style="fill: #fff;" x="440" y="56">o</text><text style="fill: #fff;" x="450" y="56">m</text><text style="fill: #fff;" x="460" y="56">p</text><text style="fill: #fff;" x="470" y="56">l</text><text style="fill: #fff;" x="480" y="56">e</text><text style="fill: #fff;" x="490" y="56">t</text><text style="fill: #fff;" x="500" y="56">i</text><text style="fill: #fff;" x="510" y="56">o</text><text style="fill: #fff;" x="520" y="56">n</text><text style="fill: #fff;" x="540" y="56">f</text><text style="fill: #fff;" x="550" y="56">u</text><text style="fill: #fff;" x="560" y="56">n</text><text style="fill: #fff;" x="570" y="56">c</text><text style="fill: #fff;" x="580" y="56">t</text><text style="fill: #fff;" x="590" y="56">i</text><text style="fill: #fff;" x="600" y="56">o</text><text style="fill: #fff;" x="610" y="56">n</text><text style="fill: #fff; font-weight: bold;" x="0" y="76">%</text></svg>